<?xml version="1.0" encoding="utf-8"?>
<!-- Generator: Adobe Illustrator 25.1.0, SVG Export Plug-In . SVG Version: 6.00 Build 0)  -->
<svg version="1.1"
	 id="svg2" inkscape:version="0.91 r13725" sodipodi:docname="Apple_1998.svg" xmlns:cc="http://creativecommons.org/ns#" xmlns:dc="http://purl.org/dc/elements/1.1/" xmlns:inkscape="http://www.inkscape.org/namespaces/inkscape" xmlns:rdf="http://www.w3.org/1999/02/22-rdf-syntax-ns#" xmlns:sodipodi="http://sodipodi.sourceforge.net/DTD/sodipodi-0.dtd" xmlns:svg="http://www.w3.org/2000/svg"
	 xmlns="http://www.w3.org/2000/svg" xmlns:xlink="http://www.w3.org/1999/xlink" x="0px" y="0px" viewBox="0 0 120 80"
	 style="enable-background:new 0 0 120 80;" xml:space="preserve">
<style type="text/css">
	.st0{fill:#666666;}
</style>
<sodipodi:namedview  bordercolor="#666666" borderopacity="1" gridtolerance="10" guidetolerance="10" id="namedview6" inkscape:current-layer="svg2" inkscape:cx="-1066.5045" inkscape:cy="964.94669" inkscape:pageopacity="0" inkscape:pageshadow="2" inkscape:window-height="705" inkscape:window-maximized="1" inkscape:window-width="1366" inkscape:window-x="-8" inkscape:window-y="-8" inkscape:zoom="0.1767767" objecttolerance="10" pagecolor="#ffffff" showgrid="false">
	</sodipodi:namedview>
<path id="path4" inkscape:connector-curvature="0" class="st0" d="M83.2,53.1c-0.8,1.9-1.8,3.7-2.9,5.3c-1.5,2.2-2.8,3.7-3.8,4.6
	c-1.5,1.4-3.1,2.1-4.9,2.1c-1.2,0-2.7-0.4-4.5-1.1c-1.8-0.7-3.4-1.1-4.8-1.1c-1.5,0-3.2,0.4-5,1.1s-3.2,1.1-4.3,1.1
	c-1.7,0.1-3.3-0.7-5-2.2c-1.1-0.9-2.4-2.5-4-4.7c-1.7-2.4-3.1-5.2-4.2-8.3C38.6,46.5,38,43.2,38,40c0-3.7,0.8-6.8,2.4-9.5
	c1.2-2.1,2.9-3.8,5-5s4.3-1.9,6.7-1.9c1.3,0,3.1,0.4,5.2,1.2c2.1,0.8,3.5,1.2,4.1,1.2c0.5,0,2-0.5,4.6-1.4c2.5-0.9,4.5-1.2,6.2-1.1
	c4.6,0.4,8,2.2,10.3,5.4c-4.1,2.5-6.1,6-6.1,10.5c0,3.5,1.3,6.4,3.8,8.7c1.1,1.1,2.4,1.9,3.8,2.5C83.8,51.5,83.5,52.3,83.2,53.1
	L83.2,53.1z M72.6,11.7c0,2.7-1,5.3-3,7.6c-2.4,2.8-5.3,4.4-8.5,4.2c0-0.3-0.1-0.7-0.1-1c0-2.6,1.1-5.4,3.2-7.7
	c1-1.2,2.3-2.1,3.9-2.9c1.6-0.8,3-1.2,4.4-1.3C72.6,10.9,72.6,11.3,72.6,11.7L72.6,11.7z"/>
</svg>
