<?xml version="1.0" encoding="utf-8"?>
<!-- Generator: Adobe Illustrator 25.1.0, SVG Export Plug-In . SVG Version: 6.00 Build 0)  -->
<svg version="1.1" id="Ebene_1" xmlns="http://www.w3.org/2000/svg" xmlns:xlink="http://www.w3.org/1999/xlink" x="0px" y="0px"
	 viewBox="0 0 120 80" style="enable-background:new 0 0 120 80;" xml:space="preserve">
<style type="text/css">
	.st0{fill:none;}
	.st1{fill:#666666;}
</style>
<g>
	<g>
		<g>
			<path class="st0" d="M54.5,33.4L54.5,33.4c0.5-0.2,1.1-0.5,1.4-0.9c1-0.9,2.1-2.6,2.1-4.5C55.9,28.8,54.5,31,54.5,33.4z"/>
			<path class="st0" d="M60.4,45.6c6.8,0,12.5-5.5,12.5-12.3v-21c0-1.5-1.3-2.7-2.8-2.7s-2.8,1.2-2.8,2.8v20.9
				c0,2.1-1.2,4.2-2.3,5.3c-1.2,1.1-2.8,1.6-4.5,1.6c-1.2,0-2.4-0.3-3.4-0.9c-1.6,0.7-3.4,1.1-5.1,1.1c-0.5,0-1,0-1.5-0.1
				C52.5,43.5,56.2,45.6,60.4,45.6z"/>
			<path class="st0" d="M53.6,33.7c0-0.1,0-0.2,0-0.3c0-3,1.9-5.5,4.5-6.4v-5.5c-2.4,0.4-4.7,1.6-6.5,3.5c-2.2,2.2-3.5,5-3.5,8.1
				c1.1,0.7,2.2,1.2,3.5,1.2C52.4,34.1,52.9,34,53.6,33.7z"/>
			<path class="st1" d="M61.8,58.9c-1,0-1.8,0.8-1.8,1.8v5.5c0,0.9-0.2,1.6-0.8,2.2c-0.5,0.5-1.2,0.8-2.1,0.8S55.6,69,55,68.4
				c-0.5-0.5-0.8-1.3-0.8-2.2v-5.5c0-1-0.8-1.8-1.8-1.8s-1.8,0.8-1.8,1.8c0,1.6,0,3.1,0,4.7c0,1.8,0.1,3.3,1.3,4.8
				c0.1,0.2,0.2,0.2,0.4,0.4c0.7,0.7,1.4,1.2,2.3,1.4c0.9,0.3,1.6,0.3,2.2,0.3s1.3-0.1,2.2-0.3c0.9-0.3,1.6-0.8,2.3-1.4
				c0.2-0.2,0.2-0.2,0.4-0.4c1.2-1.5,1.3-3.1,1.3-4.8c0-1.4,0-4.7,0-4.7C63.5,59.7,62.7,58.9,61.8,58.9z"/>
			<path class="st1" d="M71.3,69c-1.6,0-2.8-1.1-2.8-3v-3.9h3.9c0.9,0,1.6-0.7,1.6-1.6c0-1-0.7-1.6-1.6-1.6h-3.9V54
				c0-1-0.8-1.8-1.8-1.8S64.9,53,64.9,54v11.7c0,1.4,0.2,3,1.9,4.6c1.6,1.6,3.5,1.9,4.6,1.9c0.5,0,1.2-0.1,1.2-0.1
				c0.8-0.2,1.5-0.8,1.5-1.6c0-0.4-0.2-0.9-0.4-1.2C72.9,68.8,72.1,69,71.3,69z"/>
			<path class="st1" d="M49.8,64.2c-0.5-3-3.1-5.5-6.7-5.5c-3.6,0-7,3-6.9,6.9c0,3.9,3.3,6.9,6.9,6.9c1.3,0,2.8-0.2,4.2-1.1
				c0.7-0.4,0.9-1,0.9-1.5c0-0.7-0.3-1.2-0.8-1.4c-0.9-0.4-1.6,0.2-2.4,0.4s-1.4,0.3-1.9,0.3c-2.1,0-3.6-1.6-3.6-3.6
				c0-1,0.3-1.9,1.1-2.6c0.8-0.8,1.6-1.1,2.6-1.1c0.5,0,1.1,0.1,1.5,0.2c0.3,0.1,0.7,0.2,0.9,0.4c0.7,0.4,0.7,0.8,0.7,0.9l0,0
				c0,0.2-0.2,0.3-0.3,0.3h-2.7c-0.9,0-1.6,0.7-1.6,1.6c0,1,0.8,1.6,1.6,1.6h4.1l0,0c1.4,0,2.6-1.2,2.6-2.6
				C49.8,64.5,49.8,64.4,49.8,64.2L49.8,64.2z"/>
			<path class="st1" d="M87.6,64.1c-0.5-3-3.1-5.5-6.7-5.5s-7,3-6.9,6.9c0,3.9,3.3,6.9,6.9,6.9c1.3,0,2.8-0.2,4.2-1.1
				c0.7-0.4,0.9-1,0.9-1.5c0-0.7-0.3-1.2-0.8-1.4c-0.9-0.4-1.6,0.2-2.4,0.4c-0.7,0.2-1.4,0.3-1.9,0.3c-2.1,0-3.6-1.6-3.6-3.6
				c0-1,0.3-1.9,1.1-2.6c0.8-0.8,1.6-1.1,2.6-1.1c0.5,0,1.1,0.1,1.5,0.2c0.3,0.1,0.7,0.2,0.9,0.4c0.7,0.4,0.7,0.8,0.7,0.9l0,0
				c0,0.2-0.2,0.3-0.3,0.3H81c-0.9,0-1.6,0.7-1.6,1.6s0.8,1.6,1.6,1.6h4l0,0c1.4,0,2.6-1.2,2.6-2.6C87.6,64.5,87.6,64.3,87.6,64.1
				L87.6,64.1z M87.6,64.2L87.6,64.2L87.6,64.2z"/>
			<path class="st1" d="M99.4,59.9L99.4,59.9c-1-0.7-2.5-1.2-3.9-1.2c-3.1,0-5.7,2.1-6.6,4.9c-0.2,0.8-0.2,1.6-0.2,2.5
				c0,1.2,0,4.5,0,4.5c0,1,0.8,1.8,1.8,1.8s1.8-0.8,1.8-1.8c0,0,0-2.8,0-4.3c0-0.8,0-1.5,0.3-2.3c0.5-1.1,1.6-1.9,3-1.9l0,0
				c0.3,0,0.8,0.1,1.2,0.2c0.7,0.2,1.3,0.8,2.2,0.5c0.7-0.2,1.2-0.9,1.2-1.6C100.1,60.8,99.8,60.4,99.4,59.9z"/>
			<path class="st1" d="M33.2,52.6c-1,0-1.8,0.8-1.8,1.8v11.3c0,1.1-0.7,2.1-1.2,2.6s-1.4,0.9-2.2,0.9c-1.9,0-3.5-1.5-3.5-3.5
				c0-1.8,1.3-3.2,3.1-3.4c0.7-0.1,1.5,0.1,2.1-0.5c0.2-0.2,0.4-0.7,0.4-1.2c0-0.9-0.7-1.6-1.6-1.6c0,0-0.3,0-0.5,0
				c-3.6,0-6.9,3-6.9,6.8c0,3.8,3.1,6.9,6.9,6.9s6.9-3.1,6.9-6.8V54.2C35,53.2,34.2,52.6,33.2,52.6z"/>
			<path class="st1" d="M70,8.6c-2.1,0-3.7,1.6-3.7,3.6v20.9c0,1.9-1.1,3.6-2.1,4.5c-1.1,0.9-2.5,1.5-3.9,1.5
				c-0.8,0-1.6-0.2-2.3-0.4c3.9-2.1,6.7-6.4,6.7-11.1v-3.2v-1.2V6.6c0-1.8-1.5-3.2-3.3-3.2s-3.3,1.4-3.3,3.2v13.9
				C55.5,21,53,22.3,51,24.2c-2.2,2.2-3.5,4.9-3.7,8c-1.2-1.2-2-2.7-2-4.5c0-3.2,2.4-5.9,5.5-6.4c1.3-0.2,2.7,0.2,3.9-1.1
				c0.5-0.5,0.9-1.3,0.9-2.1c0-1.6-1.2-3.1-3-3.1c0,0-0.7,0-0.9,0c-6.8,0-12.9,5.4-12.9,12.5c0,6.1,4.4,11.3,10.1,12.5
				c2.3,3.8,6.5,6.4,11.3,6.4c7.2,0,13.4-5.9,13.4-13.1v-21C73.8,10.2,72.1,8.6,70,8.6z M55.9,32.5c-0.4,0.3-0.9,0.7-1.4,1
				c0,0,0,0,0-0.1c0-2.4,1.5-4.5,3.6-5.4C58,29.8,56.9,31.6,55.9,32.5z M48.1,33c0.1-3.1,1.3-5.9,3.5-8.1c1.8-1.8,4.1-3.1,6.5-3.5
				v5.5c-2.6,1-4.5,3.5-4.5,6.4c0,0.2,0,0.2,0,0.3c-0.7,0.2-1.2,0.2-1.9,0.2C50.4,34.1,49.1,33.6,48.1,33z M72.9,33.4
				c0,6.8-5.6,12.3-12.5,12.3c-4.2,0-7.9-2.1-10.1-5.4c0.5,0.1,1,0.1,1.5,0.1c1.9,0,3.5-0.3,5.1-1.1c1,0.5,2.1,0.9,3.4,0.9
				c1.6,0,3.3-0.7,4.5-1.6c1.2-1.1,2.4-3.1,2.3-5.3v-21c0-1.5,1.3-2.8,2.8-2.8c1.6,0,2.8,1.2,2.8,2.7L72.9,33.4L72.9,33.4z"/>
		</g>
	</g>
</g>
</svg>
