<?xml version="1.0" encoding="utf-8"?>
<!-- Generator: Adobe Illustrator 26.4.1, SVG Export Plug-In . SVG Version: 6.00 Build 0)  -->
<svg version="1.1" id="livetype" xmlns="http://www.w3.org/2000/svg" xmlns:xlink="http://www.w3.org/1999/xlink" x="0px" y="0px"
	 viewBox="0 0 120 40" style="enable-background:new 0 0 120 40;" xml:space="preserve">
<style type="text/css">
	.st0{fill:#FFFFFF;}
</style>
<path d="M119.99,8.44c0-0.31,0-0.61,0-0.92c-0.01-0.67-0.07-1.34-0.19-2c-0.11-0.66-0.32-1.3-0.62-1.9c-0.62-1.2-1.6-2.18-2.81-2.8
	c-0.6-0.3-1.25-0.51-1.91-0.63c-0.66-0.11-1.33-0.17-2.01-0.18c-0.31,0-0.62-0.01-0.92-0.01c-0.36,0-0.73,0-1.09,0v0H9.56
	c-0.37,0-0.73,0-1.1,0C8.16,0,7.85,0.01,7.54,0.01C6.87,0.02,6.2,0.08,5.53,0.19C4.87,0.3,4.23,0.52,3.63,0.82
	C3.03,1.12,2.48,1.52,2,2C1.52,2.47,1.13,3.02,0.82,3.62c-0.3,0.6-0.52,1.24-0.63,1.9c-0.11,0.66-0.17,1.33-0.18,2
	C0.01,7.83,0,8.14,0,8.44v23.11c0,0.31,0.01,0.61,0.02,0.92c0.01,0.67,0.07,1.34,0.18,2c0.11,0.66,0.32,1.31,0.63,1.9
	c0.3,0.6,0.7,1.14,1.18,1.61c0.47,0.48,1.02,0.87,1.62,1.18c0.6,0.3,1.24,0.52,1.91,0.63c0.66,0.11,1.34,0.17,2.01,0.18
	C7.85,39.99,8.16,40,8.46,40c0.37,0,0.73,0,1.1,0h100.88c0.36,0,0.73,0,1.09,0c0.31,0,0.62,0,0.92-0.01
	c0.67-0.01,1.34-0.07,2.01-0.18c0.67-0.11,1.31-0.33,1.91-0.63c0.6-0.3,1.15-0.7,1.62-1.18c0.48-0.47,0.88-1.02,1.18-1.61
	c0.3-0.6,0.51-1.24,0.62-1.9c0.11-0.66,0.17-1.33,0.19-2c0-0.31,0-0.61,0-0.92C120,31.2,120,30.83,120,30.46V9.54
	C120,9.17,120,8.81,119.99,8.44z"/>
<g>
	<g>
		<g id="_Group_">
			<g id="_Group_2">
				<g id="_Group_3">
					<path id="_Path_" class="st0" d="M24.94,20.3c0.02-1.7,0.91-3.26,2.36-4.15c-0.92-1.31-2.4-2.11-3.99-2.16
						c-1.68-0.18-3.31,1-4.16,1c-0.87,0-2.19-0.99-3.61-0.96c-1.87,0.06-3.56,1.1-4.47,2.73c-1.93,3.35-0.49,8.27,1.36,10.98
						c0.93,1.33,2.01,2.81,3.43,2.75c1.39-0.06,1.91-0.88,3.58-0.88c1.66,0,2.14,0.88,3.59,0.85c1.49-0.02,2.43-1.33,3.32-2.67
						c0.67-0.94,1.18-1.99,1.52-3.09C26.09,23.95,24.94,22.22,24.94,20.3z"/>
					<path id="_Path_2" class="st0" d="M22.21,12.21c0.81-0.97,1.21-2.23,1.11-3.49c-1.24,0.13-2.39,0.72-3.21,1.66
						c-0.81,0.92-1.22,2.13-1.14,3.36C20.22,13.75,21.42,13.19,22.21,12.21z"/>
				</g>
			</g>
			<g>
				<path class="st0" d="M42.47,27.14h-4.73L36.6,30.5h-2l4.48-12.42h2.08l4.48,12.42H43.6L42.47,27.14z M38.23,25.59h3.75
					l-1.85-5.45h-0.05L38.23,25.59z"/>
				<path class="st0" d="M55.33,25.97c0,2.81-1.51,4.62-3.78,4.62c-1.17,0.06-2.28-0.55-2.85-1.58h-0.04v4.48H46.8V21.44h1.8v1.51
					h0.03c0.59-1.02,1.7-1.64,2.88-1.6C53.81,21.35,55.33,23.16,55.33,25.97z M53.42,25.97c0-1.83-0.95-3.04-2.39-3.04
					c-1.42,0-2.38,1.23-2.38,3.04c0,1.82,0.96,3.05,2.38,3.05C52.47,29.02,53.42,27.82,53.42,25.97z"/>
				<path class="st0" d="M65.29,25.97c0,2.81-1.51,4.62-3.78,4.62c-1.17,0.06-2.28-0.55-2.85-1.58h-0.04v4.48h-1.86V21.44h1.8v1.51
					h0.03c0.59-1.02,1.7-1.64,2.88-1.6C63.78,21.35,65.29,23.16,65.29,25.97z M63.38,25.97c0-1.83-0.95-3.04-2.39-3.04
					c-1.42,0-2.38,1.23-2.38,3.04c0,1.82,0.96,3.05,2.38,3.05C62.44,29.02,63.38,27.82,63.38,25.97L63.38,25.97z"/>
				<path class="st0" d="M71.88,27.04c0.14,1.23,1.33,2.04,2.97,2.04c1.57,0,2.69-0.81,2.69-1.92c0-0.96-0.68-1.54-2.29-1.94
					l-1.61-0.39c-2.28-0.55-3.34-1.62-3.34-3.35c0-2.14,1.87-3.61,4.52-3.61c2.62,0,4.42,1.47,4.48,3.61h-1.88
					c-0.11-1.24-1.14-1.99-2.63-1.99s-2.52,0.76-2.52,1.86c0,0.88,0.65,1.39,2.25,1.79l1.37,0.34c2.55,0.6,3.61,1.63,3.61,3.44
					c0,2.32-1.85,3.78-4.79,3.78c-2.75,0-4.61-1.42-4.73-3.67L71.88,27.04z"/>
				<path class="st0" d="M83.51,19.3v2.14h1.72v1.47h-1.72v4.99c0,0.78,0.34,1.14,1.1,1.14c0.2,0,0.41-0.02,0.61-0.04v1.46
					c-0.34,0.06-0.69,0.09-1.03,0.09c-1.83,0-2.55-0.69-2.55-2.44v-5.19h-1.32v-1.47h1.32V19.3H83.51z"/>
				<path class="st0" d="M86.23,25.97c0-2.85,1.68-4.64,4.29-4.64c2.62,0,4.29,1.79,4.29,4.64c0,2.86-1.66,4.64-4.29,4.64
					C87.89,30.61,86.23,28.83,86.23,25.97z M92.93,25.97c0-1.95-0.9-3.11-2.4-3.11s-2.4,1.16-2.4,3.11c0,1.96,0.89,3.11,2.4,3.11
					S92.93,27.93,92.93,25.97L92.93,25.97z"/>
				<path class="st0" d="M96.35,21.44h1.77v1.54h0.04c0.25-0.99,1.16-1.67,2.18-1.64c0.21,0,0.43,0.02,0.64,0.07v1.74
					c-0.27-0.08-0.55-0.12-0.84-0.11c-1.03-0.04-1.91,0.76-1.95,1.8c0,0.1,0,0.19,0.01,0.29v5.37h-1.86L96.35,21.44z"/>
				<path class="st0" d="M109.55,27.84c-0.25,1.64-1.85,2.77-3.9,2.77c-2.63,0-4.27-1.76-4.27-4.6s1.64-4.68,4.19-4.68
					c2.5,0,4.08,1.72,4.08,4.47v0.64h-6.39v0.11c-0.11,1.3,0.84,2.44,2.14,2.56c0.1,0.01,0.2,0.01,0.29,0.01
					c0.9,0.08,1.75-0.43,2.09-1.27L109.55,27.84z M103.27,25.13h4.53c0.07-1.2-0.85-2.23-2.05-2.29c-0.06,0-0.11,0-0.17,0
					C104.31,22.83,103.28,23.85,103.27,25.13L103.27,25.13z"/>
			</g>
		</g>
	</g>
	<g id="_Group_4">
		<g>
			<path class="st0" d="M37.99,8.73c1.45-0.1,2.72,0.99,2.82,2.44c0.01,0.17,0.01,0.35-0.01,0.52c0,1.91-1.03,3-2.81,3h-2.16V8.73
				H37.99z M36.77,13.85h1.12c1.03,0.06,1.92-0.73,1.98-1.76c0.01-0.13,0-0.26-0.02-0.39c0.14-1.03-0.58-1.98-1.61-2.12
				C38.12,9.56,38,9.56,37.88,9.57h-1.12v4.28H36.77z"/>
			<path class="st0" d="M41.85,12.44c-0.11-1.17,0.75-2.21,1.92-2.33c1.17-0.11,2.21,0.75,2.33,1.92c0.01,0.14,0.01,0.27,0,0.41
				c0.11,1.17-0.74,2.22-1.92,2.33c-1.17,0.11-2.22-0.74-2.33-1.92C41.84,12.72,41.84,12.58,41.85,12.44z M45.18,12.44
				c0-0.98-0.44-1.55-1.21-1.55s-1.21,0.57-1.21,1.55s0.43,1.55,1.21,1.55C44.74,13.99,45.18,13.42,45.18,12.44L45.18,12.44z"/>
			<path class="st0" d="M51.74,14.7h-0.92l-0.93-3.32h-0.07l-0.93,3.32h-0.91l-1.24-4.5h0.9l0.81,3.44h0.07l0.93-3.44h0.85
				l0.93,3.44h0.07l0.8-3.44h0.89L51.74,14.7z"/>
			<path class="st0" d="M54.02,10.19h0.86v0.72h0.07c0.23-0.53,0.77-0.85,1.34-0.8c0.81-0.06,1.51,0.54,1.57,1.35
				c0.01,0.11,0,0.22-0.01,0.32v2.91h-0.89V12c0-0.72-0.31-1.08-0.97-1.08c-0.57-0.03-1.05,0.41-1.08,0.98c0,0.05,0,0.11,0,0.16
				v2.63h-0.89V10.19z"/>
			<path class="st0" d="M59.26,8.44h0.89v6.26h-0.89V8.44z"/>
			<path class="st0" d="M61.39,12.44c-0.11-1.17,0.75-2.21,1.92-2.33c1.17-0.11,2.21,0.75,2.33,1.92c0.01,0.14,0.01,0.27,0,0.41
				c0.11,1.17-0.74,2.22-1.92,2.33c-1.17,0.11-2.22-0.74-2.33-1.92C61.37,12.72,61.37,12.58,61.39,12.44z M64.72,12.44
				c0-0.98-0.44-1.55-1.21-1.55c-0.77,0-1.21,0.57-1.21,1.55s0.43,1.55,1.21,1.55C64.28,13.99,64.72,13.42,64.72,12.44z"/>
			<path class="st0" d="M66.57,13.42c0-0.81,0.6-1.28,1.67-1.34l1.22-0.07v-0.39c0-0.48-0.31-0.74-0.92-0.74
				c-0.5,0-0.84,0.18-0.94,0.5h-0.86c0.09-0.77,0.82-1.27,1.84-1.27c1.13,0,1.77,0.56,1.77,1.51v3.08h-0.86v-0.63h-0.07
				c-0.29,0.46-0.81,0.73-1.35,0.71c-0.75,0.08-1.42-0.47-1.49-1.21C66.57,13.51,66.57,13.47,66.57,13.42z M69.46,13.04v-0.38
				l-1.1,0.07c-0.62,0.04-0.9,0.25-0.9,0.65c0,0.41,0.35,0.64,0.84,0.64c0.58,0.06,1.1-0.37,1.16-0.95
				C69.46,13.06,69.46,13.05,69.46,13.04z"/>
			<path class="st0" d="M71.52,12.44c0-1.42,0.73-2.32,1.87-2.32c0.57-0.03,1.11,0.28,1.38,0.79h0.07V8.44h0.89v6.26h-0.85v-0.71
				H74.8c-0.29,0.5-0.83,0.81-1.41,0.79C72.24,14.77,71.52,13.87,71.52,12.44z M72.43,12.44c0,0.96,0.45,1.53,1.2,1.53
				s1.21-0.58,1.21-1.53c0-0.94-0.47-1.53-1.21-1.53C72.89,10.92,72.43,11.5,72.43,12.44L72.43,12.44z"/>
			<path class="st0" d="M79.4,12.44c-0.11-1.17,0.75-2.21,1.92-2.33c1.17-0.11,2.21,0.75,2.33,1.92c0.01,0.14,0.01,0.27,0,0.41
				c0.11,1.17-0.74,2.22-1.92,2.33c-1.17,0.11-2.22-0.74-2.33-1.92C79.38,12.72,79.38,12.58,79.4,12.44z M82.73,12.44
				c0-0.98-0.44-1.55-1.21-1.55s-1.21,0.57-1.21,1.55s0.43,1.55,1.21,1.55C82.29,13.99,82.73,13.42,82.73,12.44z"/>
			<path class="st0" d="M84.84,10.19h0.86v0.72h0.07c0.23-0.53,0.77-0.85,1.34-0.8c0.81-0.06,1.51,0.54,1.57,1.35
				c0.01,0.11,0,0.22-0.01,0.32v2.91h-0.89V12c0-0.72-0.31-1.08-0.97-1.08c-0.57-0.03-1.05,0.41-1.08,0.98c0,0.05,0,0.11,0,0.16
				v2.63h-0.89C84.84,14.69,84.84,10.19,84.84,10.19z"/>
			<path class="st0" d="M93.68,9.07v1.14h0.98v0.75h-0.98v2.32c0,0.47,0.19,0.68,0.64,0.68c0.11,0,0.23-0.01,0.34-0.02v0.74
				c-0.16,0.03-0.32,0.04-0.48,0.05c-0.99,0-1.38-0.35-1.38-1.22v-2.54h-0.71v-0.75h0.71V9.07H93.68z"/>
			<path class="st0" d="M95.87,8.44h0.88v2.48h0.07c0.24-0.53,0.79-0.85,1.37-0.81c0.82-0.04,1.52,0.58,1.56,1.4
				c0.01,0.09,0,0.19-0.01,0.28v2.91h-0.89v-2.69c0-0.72-0.34-1.08-0.96-1.08c-0.58-0.05-1.09,0.38-1.13,0.96c0,0.06,0,0.12,0,0.18
				v2.63h-0.89V8.44z"/>
			<path class="st0" d="M104.93,13.48c-0.25,0.85-1.07,1.4-1.95,1.3c-1.13,0.03-2.07-0.86-2.1-1.99c0-0.11,0-0.22,0.02-0.33
				c-0.15-1.14,0.65-2.18,1.78-2.33c0.1-0.01,0.2-0.02,0.29-0.02c1.25,0,2.01,0.86,2.01,2.27v0.31h-3.18v0.05
				c-0.06,0.66,0.43,1.23,1.09,1.29c0.04,0,0.08,0,0.11,0c0.43,0.05,0.86-0.16,1.07-0.55H104.93z M101.8,12.03h2.27
				c0.04-0.6-0.4-1.12-1-1.16c-0.04,0-0.07,0-0.11,0c-0.64-0.01-1.16,0.5-1.17,1.14C101.8,12.01,101.8,12.02,101.8,12.03
				L101.8,12.03z"/>
		</g>
	</g>
</g>
</svg>
