<?xml version="1.0" encoding="utf-8"?>
<!-- Generator: Adobe Illustrator 26.4.1, SVG Export Plug-In . SVG Version: 6.00 Build 0)  -->
<svg version="1.1" id="artwork" xmlns="http://www.w3.org/2000/svg" xmlns:xlink="http://www.w3.org/1999/xlink" x="0px" y="0px"
	 viewBox="0 0 120 40" style="enable-background:new 0 0 120 40;" xml:space="preserve">
<style type="text/css">
	.st0{fill:#FFFFFF;}
	.st1{fill:#EA4335;}
	.st2{fill:#FBBC04;}
	.st3{fill:#4285F4;}
	.st4{fill:#34A853;}
</style>
<path d="M119.99,8.44c0-0.31,0-0.61,0-0.92c-0.01-0.67-0.07-1.34-0.19-2c-0.11-0.66-0.32-1.3-0.62-1.9c-0.62-1.2-1.6-2.18-2.81-2.8
	c-0.6-0.3-1.25-0.51-1.91-0.63c-0.66-0.11-1.33-0.17-2.01-0.18c-0.31,0-0.62-0.01-0.92-0.01c-0.36,0-0.73,0-1.09,0v0H9.56
	c-0.37,0-0.73,0-1.1,0C8.16,0,7.85,0.01,7.54,0.01C6.87,0.02,6.2,0.08,5.53,0.19C4.87,0.3,4.23,0.51,3.63,0.82
	C3.03,1.12,2.48,1.52,2,2C1.52,2.47,1.13,3.02,0.82,3.62c-0.3,0.6-0.52,1.24-0.63,1.9c-0.11,0.66-0.17,1.33-0.18,2
	C0.01,7.83,0,8.14,0,8.44v23.11c0,0.31,0.01,0.61,0.02,0.92c0.01,0.67,0.07,1.34,0.18,2c0.11,0.66,0.32,1.31,0.63,1.9
	c0.3,0.6,0.7,1.14,1.18,1.61c0.47,0.48,1.02,0.88,1.62,1.18c0.6,0.3,1.24,0.52,1.91,0.63c0.66,0.11,1.34,0.17,2.01,0.18
	C7.85,39.99,8.16,40,8.46,40c0.37,0,0.73,0,1.1,0h100.88c0.36,0,0.73,0,1.09,0c0.31,0,0.62,0,0.92-0.01
	c0.67-0.01,1.34-0.07,2.01-0.18c0.67-0.11,1.31-0.33,1.91-0.63c0.6-0.3,1.15-0.7,1.62-1.18c0.48-0.47,0.88-1.02,1.18-1.61
	c0.3-0.6,0.51-1.24,0.62-1.9c0.11-0.66,0.17-1.33,0.19-2c0-0.31,0-0.61,0-0.92C120,31.2,120,30.83,120,30.46V9.54
	C120,9.17,120,8.81,119.99,8.44z"/>
<g>
	<path class="st0" d="M41.47,10.48h-2.86v0.85h2.01c-0.07,0.47-0.27,0.84-0.59,1.12c-0.35,0.29-0.79,0.44-1.32,0.44
		c-0.58,0-1.07-0.2-1.47-0.6c-0.39-0.4-0.59-0.92-0.59-1.53s0.2-1.12,0.59-1.53c0.4-0.4,0.89-0.6,1.47-0.6
		c0.3,0,0.58,0.06,0.84,0.17s0.47,0.26,0.63,0.46l0.06,0.08l0.65-0.65l-0.06-0.07C40.58,8.37,40.27,8.15,39.89,8
		c-0.37-0.15-0.77-0.22-1.19-0.22c-0.83,0-1.54,0.29-2.11,0.86s-0.87,1.29-0.87,2.13s0.29,1.56,0.87,2.13
		c0.57,0.57,1.29,0.86,2.11,0.86c0.87,0,1.58-0.29,2.11-0.85c0.48-0.48,0.72-1.12,0.72-1.92c0-0.14-0.01-0.29-0.04-0.44L41.47,10.48
		z"/>
	<polygon class="st0" points="42.21,13.64 45.64,13.64 45.64,12.77 43.11,12.77 43.11,11.2 45.39,11.2 45.39,10.35 43.11,10.35 
		43.11,8.77 45.64,8.77 45.64,7.9 42.21,7.9 	"/>
	<polygon class="st0" points="46.04,8.77 47.6,8.77 47.6,13.64 48.5,13.64 48.5,8.77 50.05,8.77 50.05,7.9 46.04,7.9 	"/>
	<rect x="52.31" y="7.9" class="st0" width="0.9" height="5.74"/>
	<polygon class="st0" points="53.77,8.77 55.32,8.77 55.32,13.64 56.22,13.64 56.22,8.77 57.78,8.77 57.78,7.9 53.77,7.9 	"/>
	<polygon class="st0" points="69.74,7.9 69.74,11.25 69.76,12.03 67.19,7.9 66.17,7.9 66.17,13.64 67.07,13.64 67.07,10.09 
		67.05,9.31 69.72,13.6 69.75,13.64 70.64,13.64 70.64,7.9 	"/>
	<path class="st0" d="M64.66,8.65c-0.56-0.58-1.27-0.87-2.1-0.87c-0.83,0-1.54,0.29-2.1,0.86c-0.56,0.57-0.85,1.29-0.85,2.13
		s0.29,1.56,0.85,2.13c0.56,0.57,1.27,0.87,2.1,0.87c0.82,0,1.53-0.29,2.1-0.86c0.56-0.57,0.85-1.29,0.85-2.13
		C65.51,9.93,65.23,9.22,64.66,8.65z M64.1,12.38c-0.41,0.42-0.93,0.64-1.54,0.64s-1.13-0.22-1.54-0.64s-0.61-0.96-0.61-1.61
		s0.21-1.19,0.61-1.61c0.41-0.42,0.93-0.64,1.54-0.64s1.13,0.22,1.54,0.64c0.41,0.42,0.62,0.96,0.62,1.61S64.51,11.96,64.1,12.38z"
		/>
</g>
<path class="st0" d="M60.62,21.65c-2.18,0-3.95,1.66-3.95,3.94c0,2.27,1.78,3.94,3.95,3.94s3.95-1.67,3.95-3.94
	C64.58,23.31,62.8,21.65,60.62,21.65z M60.62,27.98c-1.19,0-2.22-0.98-2.22-2.39c0-1.42,1.03-2.39,2.22-2.39
	c1.19,0,2.22,0.97,2.22,2.39C62.84,26.99,61.81,27.98,60.62,27.98z M51.99,21.65c-2.18,0-3.95,1.66-3.95,3.94
	c0,2.27,1.78,3.94,3.95,3.94c2.18,0,3.95-1.67,3.95-3.94C55.95,23.31,54.17,21.65,51.99,21.65z M51.99,27.98
	c-1.19,0-2.22-0.98-2.22-2.39c0-1.42,1.03-2.39,2.22-2.39c1.19,0,2.22,0.97,2.22,2.39C54.21,26.99,53.19,27.98,51.99,27.98z
	 M41.73,22.86v1.67h4c-0.12,0.94-0.44,1.63-0.91,2.1c-0.58,0.58-1.49,1.22-3.08,1.22c-2.46,0-4.39-1.98-4.39-4.44
	s1.93-4.44,4.39-4.44c1.32,0,2.3,0.52,3.01,1.19l1.18-1.18c-1-0.95-2.32-1.69-4.19-1.69c-3.37,0-6.2,2.74-6.2,6.12
	c0,3.37,2.83,6.12,6.2,6.12c1.82,0,3.19-0.59,4.27-1.71c1.1-1.1,1.44-2.66,1.44-3.91c0-0.39-0.03-0.75-0.09-1.05H41.73L41.73,22.86z
	 M83.69,24.16c-0.32-0.88-1.32-2.51-3.37-2.51c-2.03,0-3.71,1.59-3.71,3.94c0,2.2,1.67,3.94,3.91,3.94c1.81,0,2.85-1.1,3.28-1.74
	l-1.34-0.9c-0.44,0.66-1.06,1.09-1.94,1.09s-1.51-0.4-1.91-1.19l5.27-2.18L83.69,24.16z M78.32,25.48c-0.05-1.52,1.18-2.3,2.06-2.3
	c0.69,0,1.27,0.34,1.46,0.83L78.32,25.48z M74.04,29.29h1.73V17.72h-1.73V29.29z M71.21,22.53h-0.06c-0.39-0.46-1.13-0.88-2.07-0.88
	c-1.97,0-3.78,1.73-3.78,3.95c0,2.2,1.81,3.93,3.78,3.93c0.94,0,1.69-0.42,2.07-0.9h0.06v0.56c0,1.51-0.81,2.31-2.1,2.31
	c-1.06,0-1.71-0.76-1.98-1.4l-1.51,0.63c0.44,1.05,1.58,2.32,3.49,2.32c2.03,0,3.74-1.19,3.74-4.1v-7.07H71.2L71.21,22.53
	L71.21,22.53z M69.21,27.98c-1.19,0-2.19-1-2.19-2.37c0-1.39,1-2.4,2.19-2.4c1.18,0,2.1,1.02,2.1,2.4
	C71.33,26.98,70.4,27.98,69.21,27.98z M91.8,17.72h-4.14v11.57h1.73V24.9h2.42c1.92,0,3.8-1.39,3.8-3.59
	C95.59,19.11,93.71,17.72,91.8,17.72z M91.84,23.29h-2.45v-3.97h2.45c1.3,0,2.03,1.07,2.03,1.98
	C93.86,22.21,93.13,23.29,91.84,23.29z M102.52,21.63c-1.25,0-2.55,0.56-3.08,1.77l1.54,0.64c0.32-0.64,0.94-0.85,1.57-0.85
	c0.89,0,1.81,0.54,1.81,1.49v0.12c-0.31-0.18-0.98-0.44-1.81-0.44c-1.66,0-3.33,0.91-3.33,2.6c0,1.55,1.35,2.55,2.87,2.55
	c1.16,0,1.81-0.52,2.2-1.13h0.06v0.89h1.67v-4.44C106.03,22.78,104.49,21.63,102.52,21.63z M102.31,27.98
	c-0.56,0-1.35-0.29-1.35-0.98c0-0.89,0.98-1.23,1.83-1.23c0.76,0,1.12,0.17,1.57,0.39C104.23,27.22,103.31,27.98,102.31,27.98z
	 M112.1,21.88l-1.98,5.02h-0.06L108,21.88h-1.86l3.08,7.02l-1.76,3.9h1.81l4.75-10.92H112.1z M96.55,29.29h1.73V17.72h-1.73V29.29z"
	/>
<g>
	<path class="st1" d="M16.71,19.49L6.85,29.96c0,0,0,0,0,0.01c0.31,1.14,1.34,1.97,2.57,1.97c0.49,0,0.95-0.13,1.35-0.37l0.03-0.02
		l11.09-6.4L16.71,19.49z"/>
	<path class="st2" d="M26.69,17.72L26.69,17.72l-4.8-2.79l-5.4,4.81l5.42,5.42l4.77-2.75c0.83-0.45,1.4-1.33,1.4-2.34
		C28.07,19.04,27.51,18.17,26.69,17.72z"/>
	<path class="st3" d="M6.85,10.11c-0.06,0.22-0.09,0.44-0.09,0.69v18.49c0,0.24,0.03,0.46,0.09,0.69l10.19-10.19L6.85,10.11z"/>
	<path class="st4" d="M16.79,20.03l5.1-5.1L10.81,8.5c-0.4-0.24-0.87-0.38-1.38-0.38c-1.23,0-2.27,0.84-2.57,1.97l0,0L16.79,20.03z"
		/>
</g>
</svg>
