<?xml version="1.0" encoding="utf-8"?>
<!-- Generator: Adobe Illustrator 23.0.3, SVG Export Plug-In . SVG Version: 6.00 Build 0)  -->
<svg version="1.1" id="Layer_1" xmlns="http://www.w3.org/2000/svg" xmlns:xlink="http://www.w3.org/1999/xlink" x="0px" y="0px"
	 viewBox="0 0 160 42" style="enable-background:new 0 0 160 42;" xml:space="preserve">
<style type="text/css">
	.st0{fill:#FFFFFF;}
</style>
<g>
	<path class="st0" d="M31,1.2H8.5C3.8,1.2,0,5.1,0,9.8v22.4c0,4.7,3.8,8.5,8.5,8.5H31c4.7,0,8.5-3.8,8.5-8.5V9.8
		C39.5,5.1,35.7,1.2,31,1.2z M3.3,32.2V9.8c0-2.9,2.3-5.2,5.2-5.2H31c2.9,0,5.2,2.3,5.2,5.2v20.7c-0.9-1.2-1.9-2.6-2.8-3.6l-0.2-0.2
		c-1.7-1.9-4.5-4.3-6.2-5.3s-3.4-2.5-3.8-3.4s-1.3-2-2-2.4s-2.2-0.9-3.3-1.1c-1.1-0.2-2.8-0.6-3.8-1c-0.9-0.4-2.6-0.7-3.6-0.8
		c-1.1,0-1.2,0.1-0.2,0.4c0.9,0.3,2.4,0.9,3.2,1.4c0.8,0.5,1.9,1.6,2.4,2.3s1.1,1.7,1.2,2.1c0.2,0.4,0.4,1.3,0.4,1.9
		c0.1,0.6-0.3,2.7-1,4.6c-0.6,1.9-1,5.6-1,8.2v0.2c0,1.1,0.2,2.3,0.3,3.5H8.5C5.6,37.4,3.3,35.1,3.3,32.2z"/>
	<path class="st0" d="M58.9,4.8c0.2,0,0.4-0.2,0.4-0.4V2.1c0-0.2-0.2-0.4-0.4-0.4H47.7c-0.2,0-0.4,0.2-0.4,0.4v16.8
		c0,0.2,0.2,0.4,0.4,0.4h2.2c0.2,0,0.4-0.2,0.4-0.4v-7.4h8.6c0.2,0,0.4-0.2,0.4-0.4V8.8c0-0.2-0.2-0.4-0.4-0.4h-8.6V4.8H58.9z"/>
	<path class="st0" d="M63.6,1.7h-2.2c-0.2,0-0.4,0.2-0.4,0.4v16.8c0,0.2,0.2,0.4,0.4,0.4h2.2c0.2,0,0.4-0.2,0.4-0.4V2.1
		C64,1.9,63.9,1.7,63.6,1.7z"/>
	<path class="st0" d="M79.5,1.7h-2.2c-0.2,0-0.4,0.2-0.4,0.4v10.2L66.3,1.8c-0.1-0.1-0.3-0.1-0.4-0.1c-0.1,0.1-0.2,0.2-0.2,0.4v16.8
		c0,0.2,0.2,0.4,0.4,0.4h2.2c0.2,0,0.4-0.2,0.4-0.4V8.5l10.5,10.7c0.1,0.1,0.2,0.1,0.3,0.1c0.1,0,0.1,0,0.2,0
		c0.1-0.1,0.2-0.2,0.2-0.4V2.1C79.9,1.9,79.7,1.7,79.5,1.7z"/>
	<path class="st0" d="M94.4,4.3c-1.7-1.7-3.8-2.6-6.2-2.6H82c-0.2,0-0.4,0.2-0.4,0.4v16.8c0,0.2,0.2,0.4,0.4,0.4h6.2
		c2.4,0,4.5-0.9,6.2-2.6s2.6-3.8,2.6-6.2C97,8.1,96.1,6,94.4,4.3z M94,10.5c0,1.6-0.6,2.9-1.7,4.1c-1.1,1.1-2.5,1.7-4.1,1.7h-3.5
		V4.8h3.5c1.6,0,2.9,0.6,4.1,1.7C93.4,7.6,94,8.9,94,10.5z"/>
	<path class="st0" d="M57.5,24.2c-1.2-1.2-2.6-1.7-4.2-1.7h-5.6c-0.2,0-0.4,0.2-0.4,0.4v16.8c0,0.2,0.2,0.4,0.4,0.4h2.2
		c0.2,0,0.4-0.2,0.4-0.4v-6c0.9,0.5,1.9,0.8,3,0.8c1.7,0,3.1-0.6,4.2-1.8c1.2-1.2,1.8-2.6,1.8-4.2C59.3,26.8,58.7,25.4,57.5,24.2z
		 M56.2,28.4c0,0.8-0.3,1.5-0.9,2.1c-0.6,0.6-1.3,0.9-2.1,0.9s-1.5-0.3-2.1-0.9s-0.9-1.3-0.9-2.1v-3h3c0.8,0,1.5,0.3,2.1,0.9
		C55.9,26.9,56.2,27.6,56.2,28.4z"/>
	<path class="st0" d="M72.2,25.5c0.2,0,0.4-0.2,0.4-0.4v-2.3c0-0.2-0.2-0.4-0.4-0.4H61c-0.2,0-0.4,0.2-0.4,0.4v16.8
		c0,0.2,0.2,0.4,0.4,0.4h11.2c0.2,0,0.4-0.2,0.4-0.4v-2.2c0-0.2-0.2-0.4-0.4-0.4h-8.6v-4.8h8.6c0.2,0,0.4-0.2,0.4-0.4v-2.3
		c0-0.2-0.2-0.4-0.4-0.4h-8.6v-3.7h8.6V25.5z"/>
	<path class="st0" d="M88.1,22.4h-2.2c-0.2,0-0.4,0.2-0.4,0.4V33L75,22.6c-0.1-0.1-0.3-0.1-0.4-0.1c-0.1,0.1-0.2,0.2-0.2,0.4v16.8
		c0,0.2,0.2,0.4,0.4,0.4H77c0.2,0,0.4-0.2,0.4-0.4V29.2l10.5,10.7c0,0.1,0.1,0.1,0.2,0.1s0.1,0,0.2,0c0.1-0.1,0.2-0.2,0.2-0.4V22.8
		C88.5,22.6,88.4,22.4,88.1,22.4z"/>
	<path class="st0" d="M122.7,22.4h-2.2c-0.2,0-0.4,0.2-0.4,0.4v10.1c0,1.2-0.4,2.1-1.2,2.9c-0.8,0.8-1.7,1.2-2.9,1.2
		c-1.1,0-2.1-0.4-2.9-1.2s-1.3-1.8-1.3-2.9V22.8c0-0.2-0.2-0.4-0.4-0.4h-2.2c-0.2,0-0.4,0.2-0.4,0.4v10.1c0,2,0.7,3.6,2.1,5
		s3.1,2.1,5,2.1c2,0,3.7-0.7,5-2.1c1.3-1.3,2-3,2-5V22.8C123.1,22.6,122.9,22.4,122.7,22.4z"/>
	<path class="st0" d="M127.6,22.4h-2.2c-0.2,0-0.4,0.2-0.4,0.4v16.8c0,0.2,0.2,0.4,0.4,0.4h2.2c0.2,0,0.4-0.2,0.4-0.4V22.8
		C128,22.6,127.8,22.4,127.6,22.4z"/>
	<path class="st0" d="M143.6,22.4h-2.2c-0.2,0-0.4,0.2-0.4,0.4V33l-10.5-10.5c-0.1-0.1-0.3-0.1-0.4-0.1c-0.1,0.1-0.2,0.2-0.2,0.4
		v16.8c0,0.2,0.2,0.4,0.4,0.4h2.2c0.2,0,0.4-0.2,0.4-0.4V29.2l10.5,10.7c0.1,0.1,0.2,0.1,0.3,0.1s0.1,0,0.2,0
		c0.1-0.1,0.2-0.2,0.2-0.4V22.8C144,22.6,143.8,22.4,143.6,22.4z"/>
	<path class="st0" d="M158.4,30.7c-1-1-2.3-1.6-3.9-1.6h-3.9c-0.5,0-0.9-0.2-1.3-0.5c-0.4-0.4-0.6-0.8-0.6-1.3s0.2-0.9,0.6-1.3
		c0.4-0.4,0.8-0.5,1.3-0.5h6.9c0.2,0,0.4-0.2,0.4-0.4v-2.3c0-0.2-0.2-0.4-0.4-0.4h-6.9c-1.3,0-2.5,0.5-3.5,1.4
		c-0.9,0.9-1.4,2.1-1.4,3.4s0.5,2.5,1.4,3.4c1,1,2.1,1.4,3.5,1.4h3.9c0.7,0,1.2,0.2,1.7,0.7s0.7,1,0.7,1.7s-0.2,1.2-0.7,1.7
		s-1,0.7-1.7,0.7h-8.4c-0.2,0-0.4,0.2-0.4,0.4v2.2c0,0.2,0.2,0.4,0.4,0.4h8.4c1.5,0,2.8-0.5,3.9-1.6c1.1-1.1,1.6-2.4,1.6-3.9
		C160,33.1,159.5,31.8,158.4,30.7z"/>
	<path class="st0" d="M107.4,32.1c-0.1-0.1-0.2-0.1-0.3-0.1h-8.2c-0.2,0-0.4,0.2-0.4,0.4v2.2c0,0.2,0.2,0.4,0.4,0.4h4.2
		c-1.1,1.3-2.7,2-4.4,2c-3.2,0-5.8-2.6-5.8-5.8s2.6-5.8,5.8-5.8c2.2,0,4.1,1.2,5.1,3.1c0.1,0.1,0.2,0.2,0.4,0.2h2.4
		c0.1,0,0.3-0.1,0.3-0.2c0.1-0.1,0.1-0.2,0.1-0.4c-0.1-0.4-0.3-0.7-0.5-1.1c-1.5-3-4.5-4.8-7.8-4.8c-4.9,0-8.8,4-8.8,8.8
		s4,8.8,8.8,8.8c4.4,0,8.1-3.3,8.7-7.6C107.5,32.3,107.5,32.2,107.4,32.1z"/>
</g>
</svg>
