<?xml version="1.0" encoding="utf-8"?>
<!-- Generator: Adobe Illustrator 25.1.0, SVG Export Plug-In . SVG Version: 6.00 Build 0)  -->
<svg version="1.1" id="svg3061" xmlns:svg="http://www.w3.org/2000/svg"
	 xmlns="http://www.w3.org/2000/svg" xmlns:xlink="http://www.w3.org/1999/xlink" x="0px" y="0px" viewBox="0 0 130 80"
	 style="enable-background:new 0 0 130 80;" xml:space="preserve">
<style type="text/css">
	.st0{fill:#666666;}
	.st1{fill-rule:evenodd;clip-rule:evenodd;fill:#666666;}
</style>
<g>
	<g>
		<g>
			<path class="st0" d="M98,52.3h-1.3v-0.6h3.2v0.6h-1.3v3.5H98V52.3z"/>
			<path class="st0" d="M100.8,51.7h1.5c1,0,1.5,0.4,1.5,1.2c0,0.6-0.3,1-0.9,1.2l1,1.7h-0.8l-1-1.6h-0.8v1.6h-0.6
				C100.8,55.8,100.8,51.7,100.8,51.7z M102.2,53.6c0.5,0,0.9-0.1,0.9-0.6c0-0.4-0.3-0.6-0.9-0.6h-0.8v1.3
				C101.4,53.6,102.2,53.6,102.2,53.6z"/>
			<path class="st0" d="M105.8,51.7h0.6l1.4,4.1H107l-0.3-1h-1.5l-0.2,1h-0.6L105.8,51.7z M106.8,54.3l-0.6-1.7l0,0l-0.5,1.6h1.2
				L106.8,54.3L106.8,54.3z"/>
			<path class="st0" d="M108.1,51.7h0.8l1.1,3.2l0,0l1.1-3.2h0.6l-1.4,4.1h-0.6L108.1,51.7z"/>
			<path class="st0" d="M112.4,51.7h2.6v0.6h-2v1h1.4V54H113v1.2h2.1v0.6h-2.8v-4.1H112.4z"/>
			<path class="st0" d="M116,51.7h0.6v3.5h1.8v0.6h-2.6v-4.1H116z"/>
			<path class="st0" d="M119.3,51.7h0.6v3.5h1.8v0.6h-2.6v-4.1H119.3z"/>
			<path class="st0" d="M122.7,51.7h2.6v0.6h-1.8v1h1.4V54h-1.4v1.2h2.1v0.6h-2.8L122.7,51.7L122.7,51.7z"/>
			<path class="st0" d="M126.4,51.7h1.5c1,0,1.5,0.4,1.5,1.2c0,0.6-0.3,1-0.9,1.2l1,1.7h-0.8l-1-1.6H127v1.6h-0.6
				C126.4,55.8,126.4,51.7,126.4,51.7z M127.8,53.6c0.5,0,0.9-0.1,0.9-0.6c0-0.4-0.3-0.6-0.9-0.6H127v1.3
				C127,53.6,127.8,53.6,127.8,53.6z"/>
		</g>
	</g>
	<g>
		<path class="st1" d="M39.8,40.1c-1-2.9-4.9-2.9-5.7,0H39.8L39.8,40.1z M59.6,48.9V33.7h-4.5v8.6c0,1.6-2.3,1.6-2.3,0v-8.6h-4.5
			v-5.6h-4.7v10.1c-1.4-3.2-4.3-4.9-7.8-4.3c-2.6,0.5-4.3,1.9-5.3,4.3c-0.9-2.8-2.9-4.3-5.8-4.4c-3,0-5.4,1.4-6.3,4.4
			c-1.5-3.5-4.7-5.1-8.3-4.2c-2.5,0.6-3.9,1.8-4.9,3.9v-9.7H0.5V48h4.7v-4.3c1.3,2.6,3.6,4,6.5,4.1c3.1-0.2,5.1-1.6,6.4-4.4v4.7h4.4
			v-8.4c0.2-1.8,3-1.9,3.1,0v8.4h4.7v-4.4c1,2.3,2.6,3.7,5.1,4.3c5.3,0.5,7.4-3.1,7.4-4.1L39,43.1c-1.9,1.4-4.1,0.6-4.9-1.3h9.3v6.1
			H48v-3c0.8,3,4.5,4.1,6.7,1.8c0,0.6,0,1.4-0.2,2.1c-0.8,1.7-3,1.7-4.2,0.5l-2.7,3.6c1.7,1.4,3.5,2.1,5.7,1.8
			c1.8-0.2,3-0.5,4.4-1.8C59.1,51.7,59.6,50.5,59.6,48.9L59.6,48.9z M11.5,37.6c1.6,0,2.9,1.3,2.9,2.9c0,1.6-1.3,3-2.9,3
			s-2.9-1.4-2.9-3C8.5,38.9,9.8,37.6,11.5,37.6L11.5,37.6z"/>
		<path class="st1" d="M112.4,39.8h5.6C117.2,36.9,113.1,37,112.4,39.8L112.4,39.8z M129.1,42.6l0.2-0.2l0.1,3.9
			c0.1,1-3.5,2.4-5.5,0.9c-1.9-1.4-1.9-3-1.9-5.3h-9.4c1.1,2.7,4.2,2.4,5.1,1.1l3.9,0.6c-1.4,4.4-5.3,5.1-8.9,3.8
			c-1.9-0.9-3-1.9-3.9-3.9v4.4h-4.5c0-2.7,0-5.7,0-8.6c-0.1-1.8-3-1.7-3,0.1v8.4L96.4,48h-3l-0.1-2.7c0-1.1-1.2,2.8-2.6,2.7
			c-3.2,0.2-5.7-1.4-7-4.2v4.1H79v-4.1c-1.4,2.7-4.9,4.4-8.3,3.6L70,47.1c0,0,0.1,4.8,0.1,6.1h-4.5V40.9c0.1-5.7,6.4-9.2,11.2-5.7
			c1.1,0.9,1.6,1.6,2.3,2.8v-9.7h4.7V38c1.4-3.1,4.3-4.5,7.8-4c2.5,0.6,4,1.9,5,4.3c1.3-3.8,4.9-5.3,8.7-4c1.8,0.9,2.8,2.1,3.5,4
			c1.7-3.8,5.4-5.3,9.2-4c1.9,0.9,3.1,2.1,4,4V31h4.4v2.8h2.8V38h-2.8c0,1.4-0.2,2.8,0.2,4.1C127,43,128.2,43.2,129.1,42.6
			L129.1,42.6z M89.9,37.7c1.6,0,2.9,1.3,2.9,2.9c0,1.6-1.3,2.9-2.9,2.9S87,42.2,87,40.6S88.2,37.7,89.9,37.7L89.9,37.7z M72.6,37.7
			c1.6,0,2.9,1.3,2.9,2.9c0,1.6-1.3,2.9-2.9,2.9s-2.9-1.3-2.9-2.9S71,37.7,72.6,37.7L72.6,37.7z"/>
		<path class="st1" d="M34,29.9C38.2,17.5,49.9,8.6,63.6,8.6c13.9,0,25.5,8.8,29.7,21.3l-1.6,0.5L90.1,31
			c-3.8-11-14.2-18.8-26.4-18.8s-22.6,7.9-26.5,19L34,29.9L34,29.9z"/>
		<path class="st1" d="M93.3,50.5c-4.2,12.2-15.9,20.9-29.7,20.9c-13.9,0-25.5-8.6-29.7-20.9l1.6-0.5l1.5-0.5
			c4,10.6,14.4,18.3,26.6,18.3s22.6-7.7,26.5-18.5L93.3,50.5L93.3,50.5z"/>
	</g>
</g>
</svg>
