<?xml version="1.0" encoding="utf-8"?>
<!-- Generator: Adobe Illustrator 25.1.0, SVG Export Plug-In . SVG Version: 6.00 Build 0)  -->
<svg version="1.1" id="svg3061" xmlns:svg="http://www.w3.org/2000/svg"
	 xmlns="http://www.w3.org/2000/svg" xmlns:xlink="http://www.w3.org/1999/xlink" x="0px" y="0px" viewBox="0 0 120 80"
	 style="enable-background:new 0 0 120 80;" xml:space="preserve">
<style type="text/css">
	.st0{fill:#666666;}
</style>
<g>
	<g>
		<path id="path3069" class="st0" d="M98.9,65h0.7c1.3,0,1.5-0.2,1.5-1.5V48.3c0-1.4-0.2-1.5-1.5-1.5h-0.7v-1.2c0.6,0,1.3,0,1.9,0.1
			c0.6,0,1.3,0,1.9,0h6.5c1.5,0,2.8,0,4.2-0.1l0.3,4.9h-1.2c-0.5-3-0.9-3.3-3.4-3.3H104v7.4h2.7c3.7,0,3.8,0,3.8-1.6v-0.5h1.2v6.3
			h-1.2v-0.4c0-2.3-0.5-2.4-2.9-2.4H104v8.6h6c2.1,0,2.5-0.2,3.7-3.5h1.3l-1,5c-3.9,0-7.9-0.1-10.6-0.1c-2.3,0-3.5,0-4.6,0.1
			L98.9,65L98.9,65z"/>
		<path id="path3071" class="st0" d="M80.1,49.2L80.1,49.2L80,63.5c0,1.4,0.2,1.5,1.5,1.5h1v1.2c-1.1,0-2.2-0.1-3.2-0.1
			c-1.1,0-2.2,0-3.2,0.1V65h1c1.3,0,1.5-0.2,1.5-1.5V48.3c0-1.4-0.2-1.5-1.5-1.5h-1v-1.2c0.8,0,1.7,0.1,2.7,0.1c0.9,0,1.8,0,2.7-0.1
			c0.2,0.5,0.5,0.9,0.7,1.3l10.7,14.2l0,0V48.3c0-1.4-0.2-1.5-1.5-1.5h-1.1v-1.2c1.1,0,2.2,0.1,3.2,0.1s2.1,0,3.2-0.1v1.2h-0.9
			c-1.3,0-1.5,0.2-1.5,1.5v18.1H93L80.1,49.2z"/>
		<path id="path3073" class="st0" d="M65.7,65h1c1.3,0,1.5-0.2,1.5-1.6V48.3c0-1.4-0.2-1.5-1.5-1.5h-1v-1.2c1.3,0,2.7,0.1,3.9,0.1
			s2.7,0,3.9-0.1v1.2h-1c-1.3,0-1.5,0.2-1.5,1.5v15.1c0,1.4,0.2,1.6,1.5,1.6h1v1.2c-1.3,0-2.7-0.1-3.9-0.1s-2.7,0-3.9,0.1V65z"/>
		<path id="path3075" class="st0" d="M48,65h1c1.3,0,1.5-0.2,1.5-1.5V48.3c0-1.4-0.2-1.5-1.5-1.5h-1v-1.2c1.3,0,2.7,0.1,3.9,0.1
			c1.3,0,2.7,0,3.9-0.1v1.2h-1c-1.3,0-1.5,0.2-1.5,1.5v16.3H59c2.5,0,3-0.4,3.6-1.9l0.7-2h1.2l-1.1,5.5c-2.9,0-6-0.1-8.9-0.1
			c-2.2,0-4.3,0-6.5,0.1V65L48,65z"/>
		<path id="path3077" class="st0" d="M29.4,49.2L29.4,49.2l-0.1,14.3c0,1.4,0.2,1.5,1.5,1.5h1v1.2c-1.1,0-2.2-0.1-3.2-0.1
			c-1.1,0-2.2,0-3.2,0.1V65h1c1.3,0,1.5-0.2,1.5-1.5V48.3c0-1.4-0.2-1.5-1.5-1.5h-1v-1.2c0.8,0,1.7,0.1,2.7,0.1c0.9,0,1.8,0,2.7-0.1
			c0.2,0.5,0.5,0.9,0.7,1.3l10.7,14.2l0,0V48.3c0-1.4-0.2-1.5-1.5-1.5h-1v-1.2c1.1,0,2.2,0.1,3.2,0.1c1.1,0,2.1,0,3.2-0.1v1.2h-1
			c-1.3,0-1.5,0.2-1.5,1.5v18.1h-1.3L29.4,49.2z"/>
		<path id="path3079" class="st0" d="M15,45.4c6.2,0,10,4,10,10.2c0,5.6-3.5,10.8-10.3,10.8C7.8,66.5,5,61.1,5,56.1
			C5,49.8,8.8,45.4,15,45.4z M14.7,65.1c5.1,0,7-4.3,7-9.6c0-4.7-1.9-8.9-6.7-8.9c-3.8,0-6.8,3.1-6.8,9.2
			C8.2,62.3,11.1,65.1,14.7,65.1z"/>
	</g>
	<g>
		<path id="path3081" class="st0" d="M115,28.8h-4v4h-5.4V17.3h1.7v-3.7h-7.8v3.8h2v15.5h-1.9v3.8H115V28.8z"/>
		<path id="path3083" class="st0" d="M97.1,20.5v-6.9H81.6v3.8h2v15.5h-2v3.8h15.5v-7.8h-4v4h-5.4v-6.4H95v-3.7h-7.3v-5.5h5.4v3.2
			C93.1,20.5,97.1,20.5,97.1,20.5z"/>
		<path id="path3085" class="st0" d="M75.2,26.4v6.4h-5.4V17.3h5.4v3.3h4v-4.4c0-1.5-1.2-2.6-2.7-2.7h-8.2c-1.5,0-2.6,1.2-2.7,2.7
			V34c0,1.5,1.2,2.6,2.7,2.6h10.9V22.8h-7.8v3.7h3.8V26.4z"/>
		<path id="path3087" class="st0" d="M63.4,20.5v-6.9H47.9v3.8h2v15.5h-2v3.8h15.5v-7.8h-4v4H54v-6.4h7.3v-3.7H54v-5.5h5.4v3.2
			C59.4,20.5,63.4,20.5,63.4,20.5z"/>
		<path id="path3089" class="st0" d="M46.2,17.3v-3.7H38v3.8h2v15.5h-2v3.8h8.2v-3.8h-2V17.3C44.1,17.3,46.2,17.3,46.2,17.3z"/>
		<path id="path3091" class="st0" d="M33.7,13.6H20.9v3.8h2v15.5h-2v3.8H29v-3.8h-2v-6.4h6.7c1.5,0,2.8-0.9,2.8-2.3v-8
			C36.4,14.7,35.2,13.6,33.7,13.6 M32.3,22.8h-5.4v-5.5h5.4V22.8z"/>
		<path id="path3093" class="st0" d="M9.3,22.8v-5.5h5.8v3.4h4v-4.5c0-1.5-1.2-2.6-2.7-2.7H7.8c-1.5,0-2.6,1.2-2.7,2.7v10.3H15v6.4
			H9.3v-4h-4V34c0,1.5,1.2,2.6,2.7,2.6h8.6c1.5,0,2.7-1.2,2.7-2.6V22.8H9.3z"/>
	</g>
</g>
</svg>
